<svg
	viewBox="0 0 48 48"
	fill="none"
	stroke="currentColor"
	xmlns="http://www.w3.org/2000/svg"
    width="48"
    height="48"
    stroke="#0c0a09"
>
	<path
		d="M38 23.5774C31.875 25.7953 27.7781 15.6546 24.6667 23.5774C20.5 34.1871 16.125 19.4542 10 23.5774"
	/>
	<path
		d="M45 24C45 29.3413 42.9647 34.4819 39.3083 38.3755C35.652 42.2691 30.6493 44.6232 25.3186 44.9586C19.9879 45.2939 14.7296 43.5854 10.6141 40.1808C6.49856 36.7761 3.83503 31.9312 3.16559 26.632C2.49615 21.3328 3.87111 15.9777 7.01064 11.6565C10.1502 7.33532 14.8183 4.37282 20.065 3.37197C25.3117 2.37111 30.7426 3.40711 35.2524 6.26911C39.7622 9.13112 43.0119 13.604 44.3402 18.7775"
	/>
	<line x1="17" y1="16" x2="24" y2="16" />
	<line x1="24" y1="30" x2="31" y2="30" />
</svg>
